<svg xmlns="http://www.w3.org/2000/svg" width="24" height="22" fill="none"><path fill="#DE411B" d="M21.955 11.5h-6.39a.501.501 0 0 1-.5-.5V1.415c0-.275.225-.5.5-.5h6.39c.275 0 .5.225.5.5V11c0 .275-.225.5-.5.5Zm-5.89-1h5.39V1.915h-5.39V10.5Z"/><path fill="#DE411B" d="M18.76 11.5h-1.915a.501.501 0 0 1-.5-.5V9.085c0-.275.225-.5.5-.5h1.915c.275 0 .5.225.5.5V11c0 .275-.225.5-.5.5Zm-1.415-1h.915v-.915h-.915v.915ZM18.12 3.195h-2.555a.501.501 0 0 1-.5-.5c0-.275.225-.5.5-.5h2.555c.275 0 .5.225.5.5s-.225.5-.5.5ZM17.48 4.47h-1.915a.501.501 0 0 1-.5-.5c0-.275.225-.5.5-.5h1.915c.275 0 .5.225.5.5s-.225.5-.5.5ZM16.84 5.75h-1.28a.501.501 0 0 1-.5-.5c0-.275.225-.5.5-.5h1.28c.275 0 .5.225.5.5s-.225.5-.5.5ZM4.68 19.73H.755a.501.501 0 0 1-.5-.5v-7.36c0-.275.225-.5.5-.5H4.68c.275 0 .5.225.5.5v7.36c0 .275-.225.5-.5.5Zm-3.425-1H4.18v-6.36H1.255v6.36Z"/><path fill="#DE411B" d="M12.705 21.085c-1.305 0-2.745-.49-5.32-1.385-.82-.285-1.76-.61-2.86-.98a.5.5 0 0 1-.315-.635.497.497 0 0 1 .635-.315c1.1.365 2.05.695 2.87.98 3.577 1.24 7.095.942 10.555-.895a223.11 223.11 0 0 1 4.185-2.18c-.73-.555-1.28-.57-1.925-.385l-4.33 1.44a.496.496 0 0 1-.63-.315.5.5 0 0 1 .315-.63l4.35-1.445c1.305-.375 2.3-.05 3.455 1.1a.5.5 0 0 1-.13.8c-1.995 1-3.565 1.83-4.82 2.5-3.035 1.615-4.435 2.345-6.03 2.345h-.005Z"/><path fill="#DE411B" d="M14.985 17.28h-5.4a.501.501 0 0 1-.5-.5c0-.275.225-.5.5-.5h5.4c.495 0 .675-.26.675-.48 0-.22-.175-.48-.675-.48H12.04a.516.516 0 0 1-.355-.145C11.14 14.63 9.65 13.36 7.62 13.36H4.675a.501.501 0 0 1-.5-.5c0-.275.225-.5.5-.5H7.62c2.23 0 3.885 1.275 4.62 1.965h2.74c1.1 0 1.675.745 1.675 1.48s-.575 1.48-1.675 1.48l.005-.005ZM9.89 8.305A2.42 2.42 0 0 1 7.475 5.89 2.42 2.42 0 0 1 9.89 3.475a2.42 2.42 0 0 1 2.415 2.415A2.42 2.42 0 0 1 9.89 8.305Zm0-3.83c-.78 0-1.415.635-1.415 1.415S9.11 7.305 9.89 7.305s1.415-.635 1.415-1.415-.635-1.415-1.415-1.415Z"/><path fill="#DE411B" d="M13.17 11.5H6.61a.501.501 0 0 1-.5-.5c0-2.03 1.695-3.685 3.78-3.685S13.67 8.97 13.67 11c0 .275-.225.5-.5.5Zm-6.01-1h5.46c-.245-1.245-1.375-2.185-2.73-2.185S7.4 9.26 7.16 10.5Z"/></svg>