<svg xmlns="http://www.w3.org/2000/svg" width="22" height="23" fill="none"><path fill="#DE411B" d="M12.065 22.277a.537.537 0 0 1-.175-.03.503.503 0 0 1-.325-.47v-2.39c0-.275.225-.5.5-.5s.5.225.5.5v1.04l7.965-9.285-7.965-9.29v.73c0 .275-.225.5-.5.5a.501.501 0 0 1-.5-.5V.502a.5.5 0 0 1 .88-.325l9.12 10.635a.5.5 0 0 1 0 .65l-9.12 10.635a.489.489 0 0 1-.38.175v.005Z"/><path fill="#DE411B" d="M7.7 22.277a.537.537 0 0 1-.175-.03.503.503 0 0 1-.325-.47v-2.39c0-.275.225-.5.5-.5s.5.225.5.5v1.04l7.965-9.285L8.2 1.852v.73c0 .275-.225.5-.5.5a.501.501 0 0 1-.5-.5V.502a.5.5 0 0 1 .88-.325l9.12 10.635a.5.5 0 0 1 0 .65L8.08 22.097a.489.489 0 0 1-.38.175v.005Z"/><path fill="#DE411B" d="M3.335 22.277a.537.537 0 0 1-.175-.03.503.503 0 0 1-.325-.47v-5.2c0-.275.225-.5.5-.5s.5.225.5.5v3.85l7.965-9.285-7.965-9.29v3.54c0 .275-.225.5-.5.5a.501.501 0 0 1-.5-.5V.502a.5.5 0 0 1 .88-.325l9.12 10.635a.5.5 0 0 1 0 .65l-9.12 10.64a.489.489 0 0 1-.38.175Z"/><path fill="#DE411B" d="M3.335 13.977A2.84 2.84 0 0 1 .5 11.142a2.842 2.842 0 0 1 2.835-2.835 2.842 2.842 0 0 1 2.835 2.835 2.84 2.84 0 0 1-2.835 2.835Zm0-4.675A1.836 1.836 0 0 0 1.5 11.137a1.84 1.84 0 0 0 1.835 1.835 1.84 1.84 0 0 0 1.835-1.835 1.84 1.84 0 0 0-1.835-1.835Z"/></svg>