<svg xmlns="http://www.w3.org/2000/svg" width="20" height="11" fill="none"><path fill="#DE411B" d="M19.666 4.642 15.64.355a1.091 1.091 0 0 0-1.611 0 1.269 1.269 0 0 0 0 1.715l2.083 2.217H4.557c-.315 0-.6.136-.806.355l-.451.486a.615.615 0 0 1-.904 0l-.451-.486a1.103 1.103 0 0 0-.806-.355C.51 4.287 0 4.83 0 5.5s.51 1.213 1.14 1.213a1.1 1.1 0 0 0 .805-.356l.451-.485a.615.615 0 0 1 .904 0l.451.485c.206.22.491.356.806.356H16.11L14.028 8.93a1.269 1.269 0 0 0 0 1.715 1.09 1.09 0 0 0 1.61 0l4.028-4.288a1.268 1.268 0 0 0 0-1.715Z"/></svg>