<svg xmlns="http://www.w3.org/2000/svg" width="24" height="24" fill="none"><path fill="#DE411B" fill-rule="evenodd" d="M3 11.5v8H2v-8h1Z" clip-rule="evenodd"/><path fill="#DE411B" fill-rule="evenodd" d="M1 19.5a.5.5 0 0 1 .5-.5h5a.5.5 0 0 1 0 1h-5a.5.5 0 0 1-.5-.5Zm-1 4a.5.5 0 0 1 .5-.5h23a.5.5 0 0 1 0 1H.5a.5.5 0 0 1-.5-.5Zm0-2a.5.5 0 0 1 .5-.5h23a.5.5 0 0 1 0 1H.5a.5.5 0 0 1-.5-.5Zm1-10a.5.5 0 0 1 .5-.5h5a.5.5 0 0 1 0 1h-5a.5.5 0 0 1-.5-.5Zm8 8a.5.5 0 0 1 .5-.5h5a.5.5 0 0 1 0 1h-5a.5.5 0 0 1-.5-.5Zm0-8a.5.5 0 0 1 .5-.5h5a.5.5 0 0 1 0 1h-5a.5.5 0 0 1-.5-.5Z" clip-rule="evenodd"/><path fill="#DE411B" fill-rule="evenodd" d="M6 11.5v8H5v-8h1Zm5 0v8h-1v-8h1Zm3 0v8h-1v-8h1Zm3 8a.5.5 0 0 1 .5-.5h5a.5.5 0 0 1 0 1h-5a.5.5 0 0 1-.5-.5Zm0-8a.5.5 0 0 1 .5-.5h5a.5.5 0 0 1 0 1h-5a.5.5 0 0 1-.5-.5Z" clip-rule="evenodd"/><path fill="#DE411B" fill-rule="evenodd" d="M19 11.5v8h-1v-8h1Zm3 0v8h-1v-8h1ZM11.722.106a.5.5 0 0 1 .617 0l11.47 9A.5.5 0 0 1 23.5 10H.5a.5.5 0 0 1-.308-.894l11.53-9ZM1.953 9h20.1L12.029 1.135 1.953 9Z" clip-rule="evenodd"/></svg>