<svg xmlns="http://www.w3.org/2000/svg" width="22" height="22" fill="none"><path fill="#DE411B" fill-rule="evenodd" d="M4.5 10.5C4.5 6.909 7.414 4 11 4s6.5 2.909 6.5 6.5a6.498 6.498 0 0 1-4.5 6.18v.82a.5.5 0 0 1-.5.5h-3a.5.5 0 0 1-.5-.5v-.82c-2.607-.846-4.5-3.287-4.5-6.18ZM11 5a5.502 5.502 0 0 0-5.5 5.5c0 2.56 1.754 4.706 4.125 5.321a.5.5 0 0 1 .375.484V17h2v-.695a.5.5 0 0 1 .375-.484A5.498 5.498 0 0 0 11 5Zm-1 16.5a.5.5 0 0 1 .5-.5h1a.5.5 0 0 1 0 1h-1a.5.5 0 0 1-.5-.5Zm-1-2a.5.5 0 0 1 .5-.5h3a.5.5 0 0 1 0 1h-3a.5.5 0 0 1-.5-.5ZM11 0a.5.5 0 0 1 .5.5v2a.5.5 0 0 1-1 0v-2A.5.5 0 0 1 11 0Zm7.5 10.5a.5.5 0 0 1 .5-.5h2a.5.5 0 0 1 0 1h-2a.5.5 0 0 1-.5-.5Zm-18 0A.5.5 0 0 1 1 10h2a.5.5 0 0 1 0 1H1a.5.5 0 0 1-.5-.5Zm2.367-8.134a.5.5 0 0 1 .707 0l2.12 2.126a.5.5 0 0 1-.708.706l-2.12-2.125a.5.5 0 0 1 0-.707Zm16.261 0a.5.5 0 0 1 .001.707l-2.12 2.125a.5.5 0 0 1-.708-.706l2.12-2.125a.5.5 0 0 1 .707-.001Z" clip-rule="evenodd"/></svg>