<svg xmlns="http://www.w3.org/2000/svg" width="24" height="16" fill="none"><path fill="#DE411B" fill-rule="evenodd" d="M1 13.5a.5.5 0 0 1 .5-.5h3a.5.5 0 0 1 .5.5v2a.5.5 0 0 1-.5.5h-3a.5.5 0 0 1-.5-.5v-2Zm1 .5v1h2v-1H2Zm17-.5a.5.5 0 0 1 .5-.5h3a.5.5 0 0 1 .5.5v2a.5.5 0 0 1-.5.5h-3a.5.5 0 0 1-.5-.5v-2Zm1 .5v1h2v-1h-2ZM8 11.5a.5.5 0 0 1 .5-.5h7a.5.5 0 0 1 .5.5v3a.5.5 0 0 1-.5.5h-7a.5.5 0 0 1-.5-.5v-3Zm1 .5v2h6v-2H9Z" clip-rule="evenodd"/><path fill="#DE411B" fill-rule="evenodd" d="M3.146 6.146A.5.5 0 0 1 3.5 6h17a.5.5 0 0 1 .354.146l3 3A.5.5 0 0 1 24 9.5v4a.5.5 0 0 1-.5.5h-8a.5.5 0 0 1 0-1H23V9.707L20.293 7H3.707L1 9.707V13h7.5a.5.5 0 0 1 0 1h-8a.5.5 0 0 1-.5-.5v-4a.5.5 0 0 1 .146-.354l3-3Z" clip-rule="evenodd"/><path fill="#DE411B" fill-rule="evenodd" d="M5.026.342A.5.5 0 0 1 5.5 0h13a.5.5 0 0 1 .474.342l2 6A.5.5 0 0 1 20.5 7h-17a.5.5 0 0 1-.474-.658l2-6ZM5.86 1 4.194 6h15.612L18.14 1H5.86Z" clip-rule="evenodd"/><path fill="#DE411B" fill-rule="evenodd" d="M0 4.5A.5.5 0 0 1 .5 4h3a.5.5 0 0 1 .5.5v2a.5.5 0 0 1-.5.5h-3a.5.5 0 0 1-.5-.5v-2ZM1 5v1h2V5H1Zm19-.5a.5.5 0 0 1 .5-.5h3a.5.5 0 0 1 .5.5v2a.5.5 0 0 1-.5.5h-3a.5.5 0 0 1-.5-.5v-2Zm1 .5v1h2V5h-2ZM0 9.5A.5.5 0 0 1 .5 9h4a.5.5 0 0 1 .5.5v2a.5.5 0 0 1-.5.5h-4a.5.5 0 0 1-.5-.5v-2Zm1 .5v1h3v-1H1Zm18-.5a.5.5 0 0 1 .5-.5h4a.5.5 0 0 1 .5.5v2a.5.5 0 0 1-.5.5h-4a.5.5 0 0 1-.5-.5v-2Zm1 .5v1h3v-1h-3Zm-8-2a.5.5 0 0 1 .5.5v1a.5.5 0 0 1-1 0v-1A.5.5 0 0 1 12 8Z" clip-rule="evenodd"/></svg>