<svg xmlns="http://www.w3.org/2000/svg" width="24" height="20" fill="none"><path fill="#DE411B" fill-rule="evenodd" d="M3.054 5.605C1.945 6.455 1 7.965 1 10.665V14c0 2.484 2.016 4.5 4.5 4.5H13a.5.5 0 0 1 0 1H5.5A5.502 5.502 0 0 1 0 14v-3.335C0 7.7 1.055 5.877 2.446 4.811 3.812 3.764 5.433 3.5 6.5 3.5h3c.561 0 1.162.143 1.64.458.49.323.86.842.86 1.542V6c0 .694-.357 1.214-.848 1.541C10.677 7.858 10.074 8 9.5 8H7.862a9.73 9.73 0 0 1-.678 1.498c-.265.464-.61.953-1.042 1.331-.436.382-.986.671-1.642.671a.5.5 0 0 1 0-1c.344 0 .669-.148.983-.423.318-.278.598-.664.833-1.075a8.237 8.237 0 0 0 .694-1.608l.007-.025.002-.006m0 0A.5.5 0 0 1 7.5 7h2c.426 0 .823-.108 1.098-.291.26-.173.402-.403.402-.709v-.5c0-.3-.144-.531-.412-.708-.28-.185-.68-.292-1.088-.292h-3c-.933 0-2.312.236-3.446 1.105" clip-rule="evenodd"/><path fill="#DE411B" fill-rule="evenodd" d="M10 13a.5.5 0 0 1 .5-.5H17c1.106 0 2 .894 2 2 0 1.106-.894 2-2 2h-4a.5.5 0 0 1 0-1h4c.554 0 1-.446 1-1s-.446-1-1-1h-6.5a.5.5 0 0 1-.5-.5Z" clip-rule="evenodd"/><path fill="#DE411B" fill-rule="evenodd" d="M10 16a.5.5 0 0 1 .5-.5H13c1.106 0 2 .894 2 2 0 1.106-.894 2-2 2h-1.5a.5.5 0 0 1 0-1H13c.554 0 1-.446 1-1s-.446-1-1-1h-2.5a.5.5 0 0 1-.5-.5ZM11 5a.5.5 0 0 1 .5-.5h12a.5.5 0 0 1 0 1h-12A.5.5 0 0 1 11 5Z" clip-rule="evenodd"/><path fill="#DE411B" fill-rule="evenodd" d="M7 1.5c-.554 0-1 .446-1 1V4a.5.5 0 0 1-1 0V2.5c0-1.106.894-2 2-2h15c1.106 0 2 .894 2 2v9c0 1.106-.894 2-2 2H7c-1.106 0-2-.894-2-2v-1a.5.5 0 0 1 1 0v1c0 .554.446 1 1 1h15c.554 0 1-.446 1-1v-9c0-.554-.446-1-1-1H7Z" clip-rule="evenodd"/><path fill="#DE411B" fill-rule="evenodd" d="M18 7a.5.5 0 0 1 .5-.5h3a.5.5 0 0 1 0 1h-3A.5.5 0 0 1 18 7Z" clip-rule="evenodd"/></svg>