<svg xmlns="http://www.w3.org/2000/svg" width="24" height="20" fill="none"><path fill="#DE411B" fill-rule="evenodd" d="M19.945.86a1 1 0 0 1 .99-.86H23.5a.5.5 0 0 1 0 1h-2.565L19.06 14.14a1 1 0 0 1-.99.86H3.5a1.5 1.5 0 1 1 0-3h12c.274 0 .5-.226.5-.5s-.226-.5-.5-.5h-13a1.5 1.5 0 1 1 0-3H16c.274 0 .5-.226.5-.5S16.274 7 16 7H1.5a1.5 1.5 0 1 1 0-3h16a.5.5 0 0 1 0 1h-16a.5.5 0 1 0 0 1H16c.826 0 1.5.674 1.5 1.5S16.826 9 16 9H2.5a.5.5 0 1 0 0 1h13c.826 0 1.5.674 1.5 1.5s-.674 1.5-1.5 1.5h-12a.5.5 0 1 0 0 1h14.57L19.945.86ZM4 18a2 2 0 1 1 4 0 2 2 0 0 1-4 0Zm2-1a1 1 0 1 0 0 2 1 1 0 0 0 0-2Zm9 1a2 2 0 1 1 4 0 2 2 0 0 1-4 0Zm2-1a1 1 0 1 0 0 2 1 1 0 0 0 0-2Z" clip-rule="evenodd"/></svg>