<svg xmlns="http://www.w3.org/2000/svg" width="24" height="24" fill="none"><path fill="#DE411B" d="M18.585 20.06h-12.7a1.478 1.478 0 0 1-1.475-1.475v-12.7c0-.815.665-1.475 1.475-1.475h12.7c.815 0 1.475.665 1.475 1.475v12.7c0 .815-.665 1.475-1.475 1.475ZM5.885 5.405a.475.475 0 0 0-.475.475v12.7c0 .265.215.475.475.475h12.7a.475.475 0 0 0 .475-.475V5.885a.475.475 0 0 0-.475-.475h-12.7v-.005Z"/><path fill="#DE411B" d="M12.235 5.405a.501.501 0 0 1-.5-.5V1c0-.275.225-.5.5-.5s.5.225.5.5v3.905c0 .275-.225.5-.5.5ZM7.84 5.405a.501.501 0 0 1-.5-.5V1c0-.275.225-.5.5-.5s.5.225.5.5v3.905c0 .275-.225.5-.5.5ZM16.63 5.405a.501.501 0 0 1-.5-.5V1c0-.275.225-.5.5-.5s.5.225.5.5v3.905c0 .275-.225.5-.5.5ZM4.905 12.735H1a.501.501 0 0 1-.5-.5c0-.275.225-.5.5-.5h3.905c.275 0 .5.225.5.5s-.225.5-.5.5ZM4.905 17.13H1a.501.501 0 0 1-.5-.5c0-.275.225-.5.5-.5h3.905c.275 0 .5.225.5.5s-.225.5-.5.5ZM4.905 8.34H1a.501.501 0 0 1-.5-.5c0-.275.225-.5.5-.5h3.905c.275 0 .5.225.5.5s-.225.5-.5.5ZM12.235 23.97a.501.501 0 0 1-.5-.5v-3.905c0-.275.225-.5.5-.5s.5.225.5.5v3.905c0 .275-.225.5-.5.5ZM16.63 23.97a.501.501 0 0 1-.5-.5v-3.905c0-.275.225-.5.5-.5s.5.225.5.5v3.905c0 .275-.225.5-.5.5ZM7.84 23.97a.501.501 0 0 1-.5-.5v-3.905c0-.275.225-.5.5-.5s.5.225.5.5v3.905c0 .275-.225.5-.5.5ZM23.47 12.735h-3.905a.501.501 0 0 1-.5-.5c0-.275.225-.5.5-.5h3.905c.275 0 .5.225.5.5s-.225.5-.5.5ZM23.47 8.34h-3.905a.501.501 0 0 1-.5-.5c0-.275.225-.5.5-.5h3.905c.275 0 .5.225.5.5s-.225.5-.5.5ZM23.47 17.13h-3.905a.501.501 0 0 1-.5-.5c0-.275.225-.5.5-.5h3.905c.275 0 .5.225.5.5s-.225.5-.5.5ZM15.655 18.105h-6.84A2.456 2.456 0 0 1 6.36 15.65V8.81c0-1.355 1.1-2.455 2.455-2.455h6.84c1.355 0 2.455 1.1 2.455 2.455v6.84c0 1.355-1.1 2.455-2.455 2.455ZM8.815 7.36c-.8 0-1.455.65-1.455 1.455v6.84c0 .8.65 1.455 1.455 1.455h6.84c.8 0 1.455-.65 1.455-1.455v-6.84c0-.8-.65-1.455-1.455-1.455h-6.84Z"/><path fill="#DE411B" d="M13.7 10.29H9.795a.501.501 0 0 1-.5-.5c0-.275.225-.5.5-.5H13.7c.275 0 .5.225.5.5s-.225.5-.5.5ZM11.745 12.245H9.79a.501.501 0 0 1-.5-.5c0-.275.225-.5.5-.5h1.955c.275 0 .5.225.5.5s-.225.5-.5.5ZM14.675 15.175H12.72a.501.501 0 0 1-.5-.5c0-.275.225-.5.5-.5h1.955c.275 0 .5.225.5.5s-.225.5-.5.5Z"/></svg>