<svg xmlns="http://www.w3.org/2000/svg" width="24" height="23" fill="none"><path fill="#DE411B" fill-rule="evenodd" d="M0 13.52a.5.5 0 0 1 .5-.5h4a.5.5 0 0 1 .5.5v7.2a.5.5 0 0 1-.5.5h-4a.5.5 0 0 1-.5-.5v-7.2Zm1 .5v6.2h3v-6.2H1Z" clip-rule="evenodd"/><path fill="#DE411B" fill-rule="evenodd" d="M22.163 15.908c.58.182 1.12.554 1.682 1.09a.5.5 0 0 1-.129.813c-2.035.977-3.615 1.784-4.902 2.44-.608.311-1.151.588-1.646.834-1.52.756-2.6 1.226-3.654 1.39-1.074.165-2.078.008-3.44-.382-.774-.221-1.693-.527-2.829-.906-.838-.28-1.794-.598-2.897-.95a.5.5 0 1 1 .304-.953c1.14.364 2.106.687 2.943.966 1.112.37 1.996.665 2.754.882 1.309.375 2.149.488 3.012.354.883-.137 1.835-.537 3.362-1.296.48-.239 1.015-.512 1.618-.82 1.142-.583 2.53-1.291 4.249-2.126-.263-.19-.5-.31-.727-.382-.364-.115-.745-.112-1.221.018l-4.425 1.408a.5.5 0 0 1-.304-.953l4.435-1.412a.418.418 0 0 1 .02-.005c.619-.17 1.203-.196 1.795-.01Z" clip-rule="evenodd"/><path fill="#DE411B" fill-rule="evenodd" d="M4 14.48a.5.5 0 0 1 .5-.5h3c2.352 0 4.036 1.318 4.697 1.92H15c1.024 0 1.696.657 1.696 1.46 0 .803-.672 1.46-1.696 1.46H9.5a.5.5 0 0 1 0-1H15c.297 0 .47-.088.562-.171a.386.386 0 0 0 .134-.289c0-.1-.04-.204-.134-.289-.092-.083-.265-.171-.562-.171h-3a.5.5 0 0 1-.346-.14c-.477-.457-2-1.78-4.154-1.78h-3a.5.5 0 0 1-.5-.5ZM13.5 3.92c0-1.886 1.586-3.38 3.5-3.38s3.5 1.494 3.5 3.38S18.914 7.3 17 7.3s-3.5-1.494-3.5-3.38ZM17 1.54c-1.4 0-2.5 1.085-2.5 2.38S15.6 6.3 17 6.3s2.5-1.085 2.5-2.38-1.1-2.38-2.5-2.38ZM9 10.64c0-1.886 1.586-3.38 3.5-3.38S16 8.754 16 10.64s-1.586 3.38-3.5 3.38S9 12.526 9 10.64Zm3.5-2.38c-1.4 0-2.5 1.085-2.5 2.38s1.1 2.38 2.5 2.38 2.5-1.085 2.5-2.38-1.1-2.38-2.5-2.38Z" clip-rule="evenodd"/><path fill="#DE411B" fill-rule="evenodd" d="M12.5 9.18a.5.5 0 0 1 .5.5v1.92a.5.5 0 0 1-1 0V9.68a.5.5 0 0 1 .5-.5ZM17 2.46a.5.5 0 0 1 .5.5v1.92a.5.5 0 0 1-1 0V2.96a.5.5 0 0 1 .5-.5Z" clip-rule="evenodd"/></svg>