<svg width="22" height="18" viewBox="0 0 22 18" fill="none" xmlns="http://www.w3.org/2000/svg">
<path d="M21.707 11.293L16.707 6.293C16.3164 5.9024 15.6836 5.9024 15.2929 6.293C14.9022 6.6836 14.9023 7.3164 15.2929 7.7071L18.5859 11.0001H2V2H6.99998C7.27618 2 7.52618 1.8881 7.70718 1.7071L8.10338 1.3068C8.21288 1.1973 8.35658 1.1427 8.50008 1.1432C8.64368 1.1428 8.78728 1.1973 8.89678 1.3068L9.29298 1.7071C9.47398 1.8881 9.72398 2 10.0001 2C10.5524 2 11.0001 1.5523 11.0001 1C11.0001 0.4477 10.5524 0 10.0001 0C9.72398 0 9.47398 0.1119 9.29298 0.2929L8.89678 0.6932C8.78728 0.8028 8.64368 0.8573 8.50008 0.8568C8.35658 0.8572 8.21288 0.8027 8.10338 0.6932L7.70718 0.2929C7.52618 0.1119 7.27618 0 6.99998 0H0.999998C0.447299 0 0 0.4478 0 1V12C0 12.5522 0.447299 13 0.999998 13H18.5859L15.2929 16.293C14.9023 16.6836 14.9023 17.3164 15.2929 17.7071C15.4882 17.9024 15.7441 18.0001 15.9999 18.0001C16.2557 18.0001 16.5116 17.9024 16.7069 17.7071L21.7068 12.7071C22.0974 12.3165 22.0975 11.6837 21.707 11.293Z" fill="#DE411B"/>
</svg>
