<svg xmlns="http://www.w3.org/2000/svg" width="22" height="22" fill="none"><path fill="#DE411B" d="M4 11.875a2.188 2.188 0 1 1 .002-4.377A2.188 2.188 0 0 1 4 11.875Zm0-3.5c-.722 0-1.313.59-1.313 1.313C2.688 10.409 3.279 11 4 11s1.313-.59 1.313-1.313c0-.721-.591-1.312-1.313-1.312ZM5.313 21.5H2.688a.439.439 0 0 1-.438-.438v-3.224C.64 17.204.5 15.278.5 13.188c0-.241.197-.438.438-.438h6.125c.24 0 .437.197.437.438 0 2.09-.14 4.016-1.75 4.65v3.224c0 .241-.197.438-.438.438Zm-2.188-.875h1.75v-3.106a.44.44 0 0 1 .328-.425c1.116-.288 1.387-1.443 1.418-3.469H1.379c.031 2.026.302 3.18 1.418 3.47a.436.436 0 0 1 .328.424v3.106ZM18 11.875a2.188 2.188 0 1 1 .002-4.377A2.188 2.188 0 0 1 18 11.875Zm0-3.5c-.722 0-1.313.59-1.313 1.313 0 .721.591 1.312 1.313 1.312s1.313-.59 1.313-1.313c0-.721-.591-1.312-1.313-1.312ZM19.313 21.5h-2.625a.439.439 0 0 1-.438-.438v-3.224c-1.61-.634-1.75-2.56-1.75-4.65 0-.241.197-.438.438-.438h6.124c.241 0 .438.197.438.438 0 2.09-.14 4.016-1.75 4.65v3.224c0 .241-.197.438-.438.438Zm-.438-.875v-3.106a.44.44 0 0 1 .328-.425c1.116-.288 1.387-1.443 1.418-3.469h-5.246c.03 2.026.302 3.18 1.418 3.47a.436.436 0 0 1 .328.424v3.106h1.754ZM11 4.875a2.188 2.188 0 1 1 .002-4.377A2.188 2.188 0 0 1 11 4.875Zm0-3.5c-.722 0-1.313.59-1.313 1.313C9.688 3.409 10.278 4 11 4s1.313-.59 1.313-1.313c0-.721-.591-1.312-1.313-1.312ZM12.313 14.5H9.687a.439.439 0 0 1-.437-.438v-3.224c-1.61-.634-1.75-2.56-1.75-4.65 0-.241.197-.438.438-.438h6.125c.24 0 .437.197.437.438 0 2.09-.14 4.016-1.75 4.65v3.225c0 .24-.197.437-.438.437Zm-.438-.875v-3.106a.44.44 0 0 1 .328-.425c1.116-.288 1.387-1.443 1.418-3.469H8.375c.03 2.026.302 3.18 1.418 3.47a.436.436 0 0 1 .328.424v3.106h1.754Z"/></svg>