<svg xmlns="http://www.w3.org/2000/svg" width="24" height="24" fill="none"><path fill="#DE411B" d="M1.003 14.006a.502.502 0 0 1-.3-.905L17.978.386a.502.502 0 0 1 .7.105.502.502 0 0 1-.105.7L1.298 13.911a.505.505 0 0 1-.295.095Z"/><path fill="#DE411B" d="M17.848 5.316h-.055a.5.5 0 0 1-.445-.55l.37-3.515-3.37-.255a.499.499 0 1 1 .075-.995l3.885.295a.49.49 0 0 1 .345.18c.085.105.125.24.115.375l-.425 4.03a.502.502 0 0 1-.495.45v-.015ZM17.263 10.391c-2.15 0-5.79-.4-5.79-1.91 0-1.51 3.64-1.91 5.79-1.91s5.79.405 5.79 1.91-3.64 1.91-5.79 1.91Zm-4.775-1.91c.24.295 1.805.91 4.775.91 2.97 0 4.535-.615 4.775-.91-.24-.295-1.805-.91-4.775-.91-2.97 0-4.535.615-4.775.91Z"/><path fill="#DE411B" d="M17.263 12.506c-2.15 0-5.79-.4-5.79-1.91V8.481c0-.275.225-.5.5-.5s.5.225.5.5v2.115c.125.245 1.695.91 4.79.91 3.095 0 4.665-.67 4.795-.945v-2.08a.494.494 0 0 1 .495-.5c.275 0 .5.225.5.5v2.115c0 1.51-3.64 1.91-5.79 1.91Z"/><path fill="#DE411B" d="M17.263 14.621c-2.15 0-5.79-.405-5.79-1.91v-2.115c0-.275.225-.5.5-.5s.5.225.5.5v2.115c.125.245 1.695.91 4.79.91 3.095 0 4.665-.67 4.795-.945v-2.08a.494.494 0 0 1 .495-.5c.275 0 .5.225.5.5v2.115c0 1.51-3.64 1.91-5.79 1.91ZM11.618 19.561c-2.15 0-5.79-.4-5.79-1.91 0-1.51 3.64-1.91 5.79-1.91s5.79.405 5.79 1.91-3.64 1.91-5.79 1.91Zm-4.775-1.91c.24.295 1.805.91 4.775.91 2.97 0 4.535-.615 4.775-.91-.24-.295-1.805-.91-4.775-.91-2.97 0-4.535.615-4.775.91Z"/><path fill="#DE411B" d="M11.618 21.676c-2.15 0-5.79-.4-5.79-1.91v-2.115c0-.275.225-.5.5-.5s.5.225.5.5v2.115c.125.245 1.695.91 4.79.91 3.095 0 4.665-.67 4.795-.945v-2.08a.494.494 0 0 1 .495-.5c.275 0 .5.225.5.5v2.115c0 1.51-3.64 1.91-5.79 1.91Z"/><path fill="#DE411B" d="M11.618 23.796c-2.15 0-5.79-.405-5.79-1.91v-2.115c0-.275.225-.5.5-.5s.5.225.5.5v2.115c.125.245 1.695.91 4.79.91 3.095 0 4.665-.67 4.795-.945v-2.08a.494.494 0 0 1 .495-.5c.275 0 .5.225.5.5v2.115c0 1.51-3.64 1.91-5.79 1.91ZM17.263 16.741c-2.15 0-5.79-.405-5.79-1.91v-2.115c0-.275.225-.5.5-.5s.5.225.5.5v2.115c.125.245 1.695.91 4.79.91 3.095 0 4.665-.67 4.795-.945v-2.08a.494.494 0 0 1 .495-.5c.275 0 .5.225.5.5v2.115c0 1.51-3.64 1.91-5.79 1.91Z"/><path fill="#DE411B" d="M17.263 18.856h-.355a.501.501 0 0 1-.5-.5c0-.275.225-.5.5-.5h.355c3.095 0 4.665-.67 4.795-.945v-2.08a.494.494 0 0 1 .495-.5c.275 0 .5.225.5.5v2.115c0 1.51-3.64 1.91-5.79 1.91Z"/><path fill="#DE411B" d="M17.263 20.971h-.355a.501.501 0 0 1-.5-.5c0-.275.225-.5.5-.5h.355c3.095 0 4.665-.67 4.795-.945v-2.08a.494.494 0 0 1 .495-.5c.275 0 .5.225.5.5v2.115c0 1.51-3.64 1.91-5.79 1.91ZM11.973 16.741a.501.501 0 0 1-.5-.5v-1.41c0-.275.225-.5.5-.5s.5.225.5.5v1.41c0 .275-.225.5-.5.5Z"/></svg>