<svg xmlns="http://www.w3.org/2000/svg" width="22" height="22" fill="none"><path fill="#DE411B" d="M12.363 13.388a.465.465 0 0 1-.252-.078c-.252-.165-6.173-4.147-6.173-9.057 0-2.724 1.655-4.093 3.19-4.207 1.168-.092 2.51.514 3.235 1.984C13.1.532 14.48-.083 15.68.009c1.498.115 3.107 1.387 3.107 3.909 0 4.551-5.893 9.176-6.145 9.374a.459.459 0 0 1-.28.096ZM9.36.955c-.055 0-.11 0-.165.005-1.164.087-2.341 1.143-2.341 3.293 0 3.858 4.344 7.266 5.49 8.097 1.127-.941 5.525-4.84 5.525-8.432 0-1.948-1.136-2.908-2.263-2.995-1.164-.087-2.484.716-2.79 2.728a.459.459 0 0 1-.908 0C11.62 1.768 10.447.955 9.361.955ZM4.124 21.127H.458A.46.46 0 0 1 0 20.668v-7.349a.46.46 0 0 1 .458-.459h3.666a.46.46 0 0 1 .458.46v7.348a.46.46 0 0 1-.458.46ZM.916 20.21h2.75v-6.43H.916v6.43Z"/><path fill="#DE411B" d="M11.662 22c-1.146 0-2.406-.436-4.67-1.235-.843-.3-1.828-.643-3.015-1.043a.459.459 0 0 1-.288-.583.457.457 0 0 1 .582-.29c1.186.4 2.18.749 3.028 1.047 3.122 1.1 6.186.84 9.192-.78 1.118-.602 2.484-1.341 4.243-2.233-.692-.532-1.21-.541-1.814-.372l-4.046 1.346a.456.456 0 0 1-.578-.29.46.46 0 0 1 .289-.578l4.064-1.35c1.214-.35 2.14-.046 3.217 1.029a.46.46 0 0 1-.12.734c-2.043 1.025-3.582 1.856-4.82 2.522-2.643 1.428-3.867 2.071-5.26 2.071l-.005.005Z"/><path fill="#DE411B" d="M13.746 18.372h-5.04a.46.46 0 0 1 0-.919h5.04c.472 0 .637-.248.637-.46 0-.21-.165-.459-.637-.459h-2.749a.472.472 0 0 1-.325-.133c-.509-.51-1.902-1.704-3.799-1.704h-2.75a.46.46 0 0 1 0-.918h2.75c2.085 0 3.63 1.194 4.312 1.837h2.561c1.022 0 1.554.693 1.554 1.378 0 .684-.532 1.378-1.554 1.378Z"/></svg>