<svg xmlns="http://www.w3.org/2000/svg" width="24" height="23" fill="none"><path fill="#DE411B" fill-rule="evenodd" d="M12.547 9.36a.5.5 0 0 1 .433.358l1.647 5.648.928-1.817a.5.5 0 0 1 .445-.273h7.5a.5.5 0 0 1 0 1h-7.194l-1.36 2.666a.5.5 0 0 1-.926-.087l-1.647-5.648-1.928 3.776a.5.5 0 0 1-.858.054l-1.61-2.367-1.08 1.41a.5.5 0 0 1-.397.196h-6a.5.5 0 0 1 0-1h5.753l1.35-1.763a.5.5 0 0 1 .81.022l1.525 2.241 2.117-4.146a.5.5 0 0 1 .492-.27Z" clip-rule="evenodd"/><path fill="#DE411B" fill-rule="evenodd" d="M17.724.553C20.488.714 23 2.985 23 6.993c0 1.714-.514 3.425-1.295 5.041a.5.5 0 0 1-.9-.435C21.544 10.07 22 8.51 22 6.992c0-3.526-2.146-5.313-4.335-5.441-2.195-.129-4.614 1.4-5.171 4.94a.5.5 0 0 1-.988.001C10.95 2.948 8.53 1.429 6.35 1.62 4.175 1.81 2 3.725 2 7.57c0 1.39.326 2.75.871 4.054a.5.5 0 1 1-.922.386C1.364 10.61 1 9.119 1 7.57 1 3.3 3.483.867 6.262.624 8.567.422 10.914 1.744 12 4.492c1.085-2.75 3.43-4.074 5.724-3.94ZM4.427 15.338a.5.5 0 0 1 .7.094c1.512 1.98 3.299 3.64 4.713 4.81a33.87 33.87 0 0 0 2.138 1.629 41.801 41.801 0 0 0 1.94-1.664c1.303-1.19 2.975-2.856 4.461-4.778a.5.5 0 1 1 .791.612c-1.533 1.982-3.249 3.692-4.578 4.904a42.557 42.557 0 0 1-2.115 1.807l-.128.1-.034.026-.01.007-.002.002L12 22.49l-.272.42-.004-.003-.01-.006-.038-.026a24.841 24.841 0 0 1-.67-.466 34.724 34.724 0 0 1-1.803-1.395c-1.449-1.198-3.297-2.914-4.87-4.975a.5.5 0 0 1 .094-.7ZM12 22.489l-.272.42a.5.5 0 0 0 .575-.021L12 22.488Z" clip-rule="evenodd"/></svg>