<svg xmlns="http://www.w3.org/2000/svg" width="21" height="20" fill="none"><path fill="#DE411B" d="M20.998 5.99c-.562.554-1.1 1.08-1.63 1.612-.294.295-.28.28-.564-.006-.593-.592-1.191-1.178-1.784-1.77-.107-.108-.19-.114-.298-.002-.152.158-.318.3-.471.455-.092.092-.101.209-.012.301.526.544 1.057 1.084 1.602 1.641-.321.322-.671.677-1.025 1.029-.22.22-.452.428-.67.652-.114.118-.191.136-.319.007-.492-.494-.998-.975-1.49-1.468-.099-.099-.15-.11-.253-.008-.987.986-1.978 1.966-2.97 2.947l-.942.932c-.11.11-.113.213-.021.345.071.1.114.226.15.345.053.167.051.36.135.507.18.315.067.666.166.993.063.21-.017.462-.034.694-.007.099-.013.199-.027.298-.04.264-.045.54-.134.788a6.299 6.299 0 0 1-1.019 1.857c-.291.36-.639.654-1.003.921-.351.259-.753.444-1.165.614-.905.378-1.842.352-2.782.289-.317-.021-.63-.162-.937-.273a5.193 5.193 0 0 1-.768-.35c-.253-.142-.485-.32-.728-.48-.5-.334-.843-.812-1.168-1.297-.159-.237-.268-.509-.382-.773-.115-.271-.208-.552-.311-.83a.13.13 0 0 1-.01-.035c-.033-.529-.193-1.05-.11-1.584.043-.275.12-.546.185-.816.045-.182.084-.366.148-.543a5.125 5.125 0 0 1 1.315-1.97c.401-.368.825-.707 1.342-.916.223-.09.437-.204.662-.294.13-.053.27-.085.409-.115a5.953 5.953 0 0 1 1.907-.106c.318.036.635.115.942.209.227.07.437.197.66.285.046.018.134-.007.173-.043.591-.568 1.181-1.137 1.765-1.713.58-.572 1.15-1.15 1.727-1.726.839-.836 1.677-1.673 2.52-2.508 1.012-1.001 2.028-1.999 3.044-2.997.27-.265.533-.537.823-.778.213-.176.464-.308.76-.307.126 0 .253-.007.378 0 .453.032.819.228 1.104.579.25.305.398.652.395 1.045-.004.484-.211.883-.56 1.219-.265.256-.52.524-.783.783-.123.12-.128.215.003.342.682.66 1.358 1.33 2.057 2.015l-.002.003ZM17.65 3.83c.488-.494.947-.97 1.416-1.434.261-.26.431-.546.361-.924-.017-.091-.07-.174-.105-.262-.094-.233-.52-.508-.753-.44a1.62 1.62 0 0 0-.58.29c-.3.252-.563.548-.843.824-.9.89-1.804 1.777-2.704 2.668-.872.865-1.74 1.734-2.61 2.598-.912.905-1.826 1.807-2.74 2.71-.371.367-.74.741-1.118 1.103-.061.058-.204.119-.254.088-.409-.244-.828-.46-1.305-.54-.362-.059-.723-.165-1.085-.163-.368 0-.74.083-1.101.172a4.84 4.84 0 0 0-.973.346c-.28.14-.523.354-.786.529-.453.302-.751.739-1.022 1.188-.162.268-.245.582-.37.873a2.398 2.398 0 0 0-.21.942c-.004.612-.039 1.225.222 1.805.098.22.14.472.268.67.226.35.482.686.755 1.003.31.36.7.624 1.131.83.168.08.337.158.512.219.228.078.461.14.693.205.053.015.117-.003.167.018.413.174.841.09 1.26.06.253-.02.501-.115.746-.19.234-.072.471-.143.69-.25.232-.115.446-.269.663-.413.536-.355.93-.842 1.242-1.39.155-.272.264-.574.36-.874.09-.285.18-.582.193-.876.02-.449.075-.906-.085-1.35-.075-.207-.09-.436-.173-.637-.108-.26-.268-.497-.386-.753-.043-.093-.052-.194.055-.3.976-.956 1.941-1.924 2.912-2.886.663-.658 1.33-1.31 1.993-1.97.094-.092.152-.082.243.008.508.505 1.023 1 1.53 1.505.093.092.154.094.242 0 .153-.163.308-.326.476-.473.136-.12.105-.226.001-.33-.298-.3-.603-.595-.903-.893-.231-.23-.46-.463-.679-.683.587-.593 1.16-1.164 1.725-1.747.118-.121.18-.112.295.002.646.647 1.3 1.285 1.949 1.927.088.088.152.092.242-.008.152-.167.319-.323.485-.477.106-.098.1-.19.014-.29a2.433 2.433 0 0 0-.128-.136c-.646-.635-1.29-1.27-1.93-1.897l.002.004Z"/><path fill="#DE411B" d="M5.327 17.365c-1.572.036-2.634-1.217-2.628-2.585a2.602 2.602 0 0 1 2.63-2.579 2.604 2.604 0 0 1 2.627 2.589c.003 1.35-1.07 2.618-2.63 2.575Zm1.79-2.58c.03-1.107-.877-1.795-1.792-1.796-.92 0-1.765.706-1.799 1.777-.034 1.068.948 1.834 1.8 1.832.873 0 1.874-.779 1.79-1.815v.001Z"/></svg>