<svg xmlns="http://www.w3.org/2000/svg" width="18" height="22" fill="none"><path fill="#DE411B" d="M9.2 21.35c-.08 0-.16-.02-.235-.06A15.802 15.802 0 0 1 .5 7.27V1C.5.725.725.5 1 .5h16.4c.275 0 .5.225.5.5v6.27c0 5.9-3.245 11.275-8.465 14.025a.498.498 0 0 1-.235.06v-.005ZM1.5 1.5v5.77c0 5.44 2.945 10.405 7.7 13.015A14.813 14.813 0 0 0 16.9 7.27V1.5H1.5Z"/><path fill="#DE411B" d="M9.2 8.785a2.31 2.31 0 0 1-1.105-.28A2.302 2.302 0 0 1 6.9 6.49a2.298 2.298 0 0 1 2.295-2.295A2.298 2.298 0 0 1 11.49 6.49a2.298 2.298 0 0 1-2.295 2.295H9.2Zm0-3.595a1.295 1.295 0 1 0 0 2.59 1.295 1.295 0 0 0 0-2.59Z"/><path fill="#DE411B" d="M7.47 15.495c-.035 0-.07 0-.105-.01a.499.499 0 0 1-.385-.595l1.395-6.57a.503.503 0 0 1 .49-.395h.8c.24 0 .445.17.49.405l1.27 6.57a.5.5 0 0 1-.49.595h-3.24c-.04 0-.075 0-.115-.015a.416.416 0 0 1-.11.015Zm2.855-1-1.07-5.53-1.175 5.53h2.245Z"/></svg>