<svg xmlns="http://www.w3.org/2000/svg" width="22" height="22" fill="none"><path fill="#DE411B" d="M15.652 1.076c-.48-.064-.83.21-1.167.566-.578.607-1.193 1.181-1.79 1.774-.68.676-1.355 1.356-2.033 2.035-.47.47-.945.935-1.412 1.407-.098.1-.152.125-.253-.002-.114-.144-.274-.252-.39-.394-.037-.046-.033-.185.008-.226a787.437 787.437 0 0 1 3.377-3.403c.69-.692 1.37-1.396 2.083-2.066.292-.274.638-.503 1.067-.543.225-.02.456-.113.67-.08.346.054.685.173 1.018.29.153.054.27.077.395-.043.12-.114.247-.22.377-.323.117-.092.246-.092.355.01.355.335.71.67 1.055 1.014.602.6 1.2 1.204 1.796 1.81.257.261.259.411-.001.676a381.67 381.67 0 0 1-2.005 2.019c-1.064 1.066-2.13 2.13-3.192 3.196-1.158 1.163-2.313 2.33-3.473 3.491-1.124 1.124-2.254 2.242-3.378 3.364-.831.83-1.657 1.665-2.484 2.5-.203.205-.378.443-.6.625-.152.125-.357.19-.545.269-.43.18-.867.349-1.298.529-.377.157-.75.323-1.123.485-.39.167-.781.332-1.171.502-.323.14-.641.286-.963.429-.178.079-.332-.025-.425-.131-.093-.108-.21-.242-.113-.444.167-.348.29-.716.442-1.071.096-.225.219-.44.32-.664.063-.139.105-.286.165-.426.109-.255.226-.508.338-.762.095-.216.186-.435.277-.652.099-.235.194-.47.293-.705.06-.145.117-.293.192-.43.085-.159.164-.33.288-.456.497-.507 1.015-.993 1.518-1.493 1.093-1.084 2.183-2.169 3.27-3.256 1.034-1.034 2.064-2.071 3.095-3.108.463-.463.923-.93 1.387-1.393 1.472-1.474 2.946-2.945 4.415-4.422.102-.103.317-.203.2-.38-.058-.088-.26-.085-.398-.116-.046-.01-.096-.001-.186-.001l-.001-.001ZM5.319 17.782c.068-.046.129-.076.175-.123 1.053-1.042 2.106-2.083 3.154-3.13.84-.842 1.669-1.695 2.509-2.537 1.025-1.026 2.057-2.045 3.08-3.075.04-.041.042-.195 0-.236-.62-.632-1.254-1.248-1.875-1.878-.12-.121-.182-.112-.294.001-.695.705-1.396 1.403-2.096 2.102l-4.47 4.452c-.714.714-1.424 1.435-2.14 2.148-.128.127-.127.225 0 .345.212.2.417.41.625.616.4.4.8.801 1.202 1.201.036.036.079.068.13.113ZM19.848 3.25c-.041-.073-.064-.142-.109-.188A271.758 271.758 0 0 0 17.94 1.26c-.108-.108-.235-.11-.347 0-.449.446-.896.89-1.341 1.338-.634.637-1.265 1.274-1.9 1.91-.445.448-.898.89-1.335 1.345-.047.048-.055.21-.013.253.615.631 1.244 1.249 1.864 1.877.119.12.199.103.306-.006.625-.627 1.256-1.251 1.883-1.877.887-.888 1.772-1.777 2.656-2.668.05-.051.087-.115.136-.181l-.001-.001ZM1.422 19.456c-.015.15.09.15.2.116.123-.039.243-.091.36-.144.416-.189.826-.386 1.245-.567.33-.143.668-.263 1-.398.165-.066.19-.19.06-.321a127.6 127.6 0 0 0-1.48-1.463c-.027-.026-.144-.016-.158.01-.099.178-.182.365-.267.55-.117.255-.23.51-.344.765-.11.244-.226.485-.331.733-.1.231-.185.467-.284.719h-.001Z"/></svg>