<svg xmlns="http://www.w3.org/2000/svg" width="23" height="18" fill="none"><path fill="#DE411B" d="M3.13 11.814h-.024a.493.493 0 0 1-.372-.207L.081 7.686a.47.47 0 0 1 .133-.656.481.481 0 0 1 .664.132l2.3 3.402L5.836 7.43a.48.48 0 0 1 .673-.057c.2.165.229.467.057.665l-3.064 3.615a.476.476 0 0 1-.367.17l-.005-.01ZM22.014 11.993a.484.484 0 0 1-.396-.207l-2.296-3.402-2.658 3.133a.48.48 0 0 1-.673.057.468.468 0 0 1-.057-.666l3.069-3.614a.494.494 0 0 1 .39-.17c.149.01.287.085.373.208l2.653 3.92a.47.47 0 0 1-.133.657.489.489 0 0 1-.263.08l-.01.004Z"/><path fill="#DE411B" d="M11.224 17.49a8.613 8.613 0 0 1-6.032-2.462.462.462 0 0 1 0-.666.475.475 0 0 1 .673 0 7.665 7.665 0 0 0 7.12 1.991c3.908-.906 6.547-4.78 5.889-8.64a.47.47 0 0 1 .39-.542.472.472 0 0 1 .55.387c.744 4.341-2.224 8.701-6.61 9.715a8.856 8.856 0 0 1-1.98.227v-.01ZM3.159 11.795a.477.477 0 0 1-.463-.363A8.77 8.77 0 0 1 3.812 4.67C5.059 2.68 7.053 1.24 9.287.726a8.638 8.638 0 0 1 8.409 2.656.463.463 0 0 1-.043.666.48.48 0 0 1-.673-.043 7.675 7.675 0 0 0-7.473-2.359c-1.99.462-3.766 1.746-4.877 3.525a7.87 7.87 0 0 0-.998 6.044c.062.255-.1.51-.353.566a.435.435 0 0 1-.11.014h-.01Z"/><path fill="#DE411B" d="M11.248 11.357c-.611 0-1.227-.232-1.69-.694-.93-.92-.926-2.42.005-3.336a2.412 2.412 0 0 1 3.374.005c.93.92.926 2.42-.005 3.336a2.387 2.387 0 0 1-1.684.684v.005Zm0-3.775c-.368 0-.73.137-1.012.41a1.4 1.4 0 0 0 0 2 1.443 1.443 0 0 0 2.023 0 1.404 1.404 0 0 0 0-2 1.42 1.42 0 0 0-1.011-.415v.005Z"/></svg>