<svg xmlns="http://www.w3.org/2000/svg" width="22" height="22" fill="none"><path fill="#DE411B" fill-rule="evenodd" d="M2.292.917c-.76 0-1.375.615-1.375 1.375v16.5c0 .76.615 1.375 1.375 1.375h17.416c.76 0 1.375-.616 1.375-1.375v-16.5c0-.76-.615-1.375-1.375-1.375H2.292ZM0 2.292A2.292 2.292 0 0 1 2.292 0h17.416A2.292 2.292 0 0 1 22 2.292v16.5a2.292 2.292 0 0 1-1.833 2.245v.505a.458.458 0 0 1-.917 0v-.459H2.75v.459a.458.458 0 0 1-.917 0v-.505A2.292 2.292 0 0 1 0 18.793v-16.5Zm2.75 2.75A2.291 2.291 0 0 1 5.042 2.75h11.916a2.291 2.291 0 0 1 2.292 2.292v11a2.291 2.291 0 0 1-2.292 2.291H5.042a2.291 2.291 0 0 1-2.292-2.291v-.459h-.458a.458.458 0 0 1-.459-.458v-2.75c0-.253.206-.458.459-.458h.458v-2.75h-.458a.458.458 0 0 1-.459-.459v-2.75c0-.253.206-.458.459-.458h.458v-.458Zm0 1.375h.917V8.25H2.75V6.417Zm.917 2.75h.458a.458.458 0 0 0 .458-.459v-2.75a.458.458 0 0 0-.458-.458h-.458v-.458c0-.76.615-1.375 1.375-1.375h11.916c.76 0 1.375.615 1.375 1.375v11c0 .76-.615 1.375-1.375 1.375H5.042c-.76 0-1.375-.616-1.375-1.375v-.459h.458a.458.458 0 0 0 .458-.458v-2.75a.458.458 0 0 0-.458-.458h-.458v-2.75Zm-.917 3.666h.917v1.834H2.75v-1.834Zm4.612-2.75h.926c.07-.418.234-.803.47-1.135l-.655-.655a3.649 3.649 0 0 0-.741 1.79Zm1.39-2.438.655.655c.33-.236.717-.4 1.135-.47v-.927a3.649 3.649 0 0 0-1.79.742Zm2.706-.742v.927c.418.07.804.234 1.135.47l.655-.655a3.648 3.648 0 0 0-1.79-.742Zm2.439 1.39-.655.655c.235.332.4.717.47 1.135h.926a3.65 3.65 0 0 0-.741-1.79ZM14.638 11h-.926c-.07.418-.235.804-.47 1.135l.655.655a3.65 3.65 0 0 0 .741-1.79Zm-1.39 2.438-.655-.655c-.33.236-.717.4-1.135.47v.927a3.649 3.649 0 0 0 1.79-.742Zm-2.706.742v-.926a2.736 2.736 0 0 1-1.135-.47l-.655.654a3.65 3.65 0 0 0 1.79.742Zm-2.439-1.39.655-.655A2.736 2.736 0 0 1 8.288 11h-.926c.083.67.347 1.283.741 1.79Zm-1.686-2.248a4.583 4.583 0 1 1 9.166 0 4.583 4.583 0 0 1-9.166 0ZM11 8.708a1.833 1.833 0 1 0 0 3.667 1.833 1.833 0 0 0 0-3.667Z" clip-rule="evenodd"/></svg>