<svg xmlns="http://www.w3.org/2000/svg" width="24" height="18" fill="none"><path fill="#DE411B" d="M12 7.997c-.55 0-1 .45-1 1s.45 1 1 1 1-.45 1-1-.45-1-1-1Z"/><path fill="#DE411B" fill-rule="evenodd" d="M19.776.514a.5.5 0 0 1 .708 0A11.965 11.965 0 0 1 24 8.998c0 3.312-1.341 6.313-3.517 8.484a.5.5 0 0 1-.706-.709A10.944 10.944 0 0 0 23 8.998c0-3.037-1.233-5.787-3.224-7.777a.5.5 0 0 1 0-.707Z" clip-rule="evenodd"/><path fill="#DE411B" fill-rule="evenodd" d="M16.951 3.344a.5.5 0 0 1 .707 0A7.977 7.977 0 0 1 20 9.003a7.987 7.987 0 0 1-2.34 5.657.5.5 0 0 1-.71-.705A6.987 6.987 0 0 0 19 9.002a6.977 6.977 0 0 0-2.049-4.95.5.5 0 0 1 0-.708Zm-2.83 2.825a.5.5 0 0 1 .708 0A3.988 3.988 0 0 1 16 8.998a3.988 3.988 0 0 1-1.171 2.828.5.5 0 0 1-.708-.707A2.988 2.988 0 0 0 15 8.998c0-.828-.334-1.577-.879-2.122a.5.5 0 0 1 0-.707ZM4.224.514a.5.5 0 0 1 0 .707A10.944 10.944 0 0 0 1 8.998c0 3.037 1.229 5.786 3.223 7.775a.5.5 0 0 1-.706.709A11.945 11.945 0 0 1 0 8.998 11.94 11.94 0 0 1 3.517.514a.5.5 0 0 1 .707 0Z" clip-rule="evenodd"/><path fill="#DE411B" fill-rule="evenodd" d="M7.049 3.344a.5.5 0 0 1 0 .707A6.978 6.978 0 0 0 5 9.002c0 1.937.783 3.682 2.05 4.953a.5.5 0 1 1-.71.705A7.986 7.986 0 0 1 4 9.002c0-2.212.896-4.213 2.341-5.658a.5.5 0 0 1 .708 0Zm2.83 2.825a.5.5 0 0 1 0 .707A2.988 2.988 0 0 0 9 8.998c0 .827.334 1.576.879 2.12a.5.5 0 0 1-.708.708A3.988 3.988 0 0 1 8 8.997c0-1.102.446-2.103 1.171-2.828a.5.5 0 0 1 .708 0Z" clip-rule="evenodd"/></svg>