<svg xmlns="http://www.w3.org/2000/svg" width="24" height="20" fill="none"><path fill="#DE411B" d="M17.993 15.105H4.398a.501.501 0 0 1-.5-.5c0-.275.225-.5.5-.5h13.6a.47.47 0 1 0 0-.94H3.973c-.86 0-1.61-.55-1.87-1.375L.588 6.93a1.966 1.966 0 0 1 .29-1.74c.37-.5.96-.8 1.58-.8h16.625c.235 0 .44-.175.47-.415l.325-2.61a.988.988 0 0 1 .98-.865h2.485c.275 0 .5.225.5.5s-.225.5-.5.5h-2.485l-.31 2.595c-.09.735-.72 1.29-1.46 1.29H2.453a.954.954 0 0 0-.91 1.24l1.52 4.855c.125.4.49.67.915.67h14.025c.81 0 1.47.66 1.47 1.47 0 .81-.66 1.47-1.47 1.47l-.01.015Z"/><path fill="#DE411B" d="M18.968 11.705h-.055a.499.499 0 0 1-.44-.55l.485-4.37a.499.499 0 0 1 .99.11l-.485 4.37a.502.502 0 0 1-.495.445v-.005ZM6.338 19.96c-1.08 0-1.955-.88-1.955-1.955 0-1.075.88-1.955 1.955-1.955 1.075 0 1.955.88 1.955 1.955 0 1.075-.88 1.955-1.955 1.955Zm0-2.915a.955.955 0 1 0 0 1.91.955.955 0 0 0 0-1.91ZM17.023 19.96c-1.08 0-1.955-.88-1.955-1.955 0-1.075.88-1.955 1.955-1.955 1.075 0 1.955.88 1.955 1.955 0 1.075-.88 1.955-1.955 1.955Zm0-2.915a.955.955 0 1 0 0 1.91.955.955 0 0 0 0-1.91Z"/></svg>