<svg xmlns="http://www.w3.org/2000/svg" width="22" height="22" fill="none"><path fill="#DE411B" fill-rule="evenodd" d="M6.417.957c0-.253.205-.457.458-.457h9.167c.253 0 .458.204.458.457v9.13a.457.457 0 0 1-.458.457H6.875a.457.457 0 0 1-.458-.457V.957Zm.916.456V9.63h8.25V1.413h-8.25Zm.917 1.37c0-.253.205-.457.458-.457h2.75a.457.457 0 1 1 0 .913H9.167v2.283a.457.457 0 0 1-.917 0v-2.74ZM0 11.913c0-.252.205-.457.458-.457h9.167c.253 0 .458.205.458.457v9.13a.457.457 0 0 1-.458.457H.458A.457.457 0 0 1 0 21.044v-9.131Zm.917.457v8.217h8.25V12.37H.917Zm11-.457c0-.252.205-.457.458-.457h9.167c.253 0 .458.205.458.457v9.13a.457.457 0 0 1-.458.457h-9.167a.457.457 0 0 1-.458-.456v-9.131Zm.916.457v8.217h8.25V12.37h-8.25Zm-11 1.37c0-.253.206-.457.459-.457h2.75a.457.457 0 1 1 0 .913H2.75v2.282a.457.457 0 0 1-.917 0V13.74Zm11.917 0c0-.253.205-.457.458-.457h2.75a.457.457 0 1 1 0 .913h-2.291v2.282a.457.457 0 0 1-.917 0V13.74Z" clip-rule="evenodd"/></svg>