<svg xmlns="http://www.w3.org/2000/svg" width="22" height="22" fill="none"><path fill="#DE411B" fill-rule="evenodd" d="M4.565 21.999H.001v-4.563c.545.002 1.09-.002 1.636.011.18.005.215-.062.213-.226-.008-.636-.003-1.273-.003-1.91 0-3.501-.003-7.002.003-10.504 0-.202-.057-.253-.251-.248-.533.013-1.065.006-1.599.006V0h4.564c-.003.545.001 1.09-.012 1.636-.005.179.062.215.226.213.682-.008 1.364-.004 2.047-.004 3.456 0 6.913-.002 10.369.004.201 0 .253-.057.248-.252-.013-.532-.006-1.064-.006-1.598H22v4.563c-.538-.002-1.078 0-1.616-.01-.172-.004-.235.038-.233.226.01.889.005 1.78.005 2.67 0 3.248.002 6.496-.005 9.744 0 .201.056.254.25.248.533-.012 1.065-.005 1.599-.005v4.563h-4.564c.003-.533-.002-1.065.012-1.597.005-.191-.04-.255-.246-.253-1.357.01-2.716.006-4.073.006-2.775 0-5.548.002-8.323-.005-.201 0-.254.056-.248.252l.007 1.597Zm6.436-2.728v.003L11 19.27H4.836c-.276 0-.276 0-.276-.28 0-.453-.004-.909.003-1.364.002-.145-.048-.19-.192-.188-.468.007-.936-.008-1.405.007-.209.007-.243-.076-.243-.262.005-3.23.002-6.46.002-9.69 0-.898.005-1.796-.003-2.692-.001-.182.047-.252.24-.246.46.013.923 0 1.384.007.158.004.217-.04.213-.207-.01-.468.002-.936-.006-1.404-.003-.164.039-.228.217-.228 4.147.005 8.294.005 12.442 0 .18 0 .233.058.23.235-.01.461.003.923-.007 1.384-.005.175.055.22.224.217.468-.01.936.002 1.404-.006.16-.002.213.05.213.212-.004 4.152-.003 8.306 0 12.459.002.157-.044.219-.209.215-.468-.008-.936.002-1.404-.006-.165-.003-.227.04-.222.218.013.461-.005.923.008 1.384.005.192-.064.239-.247.239-2.067-.006-4.134-.004-6.2-.004ZM3.677 3.6c0 .01-.004.022-.009.039l-.012.043v.001H1.568a17.36 17.36 0 0 0-.512.001C.943 3.686.89 3.654.89 3.531c.002-.825.002-1.65 0-2.476 0-.118.05-.159.165-.159h2.476c.106 0 .148.04.148.15-.003.85-.003 1.703-.003 2.553Zm17.29.08c-.619-.003-1.239-.002-1.871-.002h-.774V2.68c.002-.525.003-1.05-.002-1.573-.002-.154.03-.22.201-.218.792.007 1.586.006 2.378 0 .162-.001.212.056.21.215-.004.617-.004 1.233-.003 1.85v.556c.002.086.003.17-.138.17ZM3.616 18.326c.006 0 .013.002.025.007l.041.015.002-.001v1.15l-.001.418c-.002.335-.003.67.003 1.005.002.146-.044.19-.188.19-.8-.004-1.599-.004-2.398 0-.151.002-.205-.046-.205-.2a204.666 204.666 0 0 0 .002-2.398v-.013c0-.095 0-.179.145-.179.644.005 1.287.005 1.931.005h.643Zm14.708 2.637c.003-.619.002-1.238.002-1.87v-.776h-.002 1.028c.515.001 1.03.002 1.546-.003.153 0 .218.032.217.203-.007.792-.006 1.585 0 2.377.001.163-.056.212-.215.21a228.042 228.042 0 0 0-2.378-.003H18.493c-.086.002-.17.004-.17-.138ZM18.325 19.086v-.768.77-.002Z" clip-rule="evenodd"/></svg>