<svg xmlns="http://www.w3.org/2000/svg" width="9" height="22" fill="none"><path fill="#DE411B" fill-rule="evenodd" d="M3.477.369c.242.09.353.205.59.308.224.099.44.221.647.352.508.32 1.014.647 1.424 1.09.431.465.87.928 1.261 1.426.272.346.481.744.695 1.132.113.204.18.434.259.654.141.393.292.784.409 1.185.075.26.11.534.14.804.045.4.11.801.096 1.2-.015.491-.08.985-.29 1.442-.162.352-.284.732-.506 1.04-.28.392-.601.77-1.023 1.033-.269.166-.541.33-.824.47-.2.1-.44.128-.632.238-.216.123-.462.04-.661.128-.259.114-.516.087-.771.075a3.266 3.266 0 0 1-.822-.12c-.397-.125-.805-.255-1.159-.467-.504-.301-.975-.654-1.335-1.15-.234-.323-.455-.65-.607-1.01-.128-.305-.195-.637-.261-.964l-.004-.02c-.057-.278-.124-.57-.097-.848.041-.397.106-.798.283-1.17.134-.278.237-.569.37-.847.085-.177.197-.34.297-.51.13-.222.267-.44.389-.666.088-.162.234-.244.388-.31.114-.048.378.136.479.287.159.24.332.47.5.704.067.094.126.194.203.278.036.04.108.069.16.065.032-.002.063-.076.084-.123.192-.44.198-.911.255-1.38.058-.478-.053-.938-.053-1.408 0-.267-.127-.533-.19-.801-.05-.218-.078-.443-.135-.66-.048-.184-.123-.36-.183-.54a1.303 1.303 0 0 1-.04-.164S2.535.265 2.55.195c.014-.07.001-.129.058-.173.063-.05.205 0 .205 0l.664.347ZM1.679 6.205c.032-.055.1-.09.16-.142V6.06c.219.294.422.573.629.849.11.147.224.294.343.433.205.24.534.222.681-.054.162-.302.297-.616.437-.928.137-.304.161-.638.245-.955.152-.579.076-1.155.07-1.73-.003-.331-.122-.662-.19-.994-.045-.222-.085-.445-.134-.665-.02-.096-.063-.186-.083-.282-.01-.051-.018-.13.011-.156.03-.03.118-.033.158-.01.226.136.453.27.663.427.336.252.675.501.981.787.31.289.606.6.859.938a8.245 8.245 0 0 1 1.042 1.788c.154.376.226.785.366 1.168.287.78.227 1.589.2 2.39-.006.216-.12.43-.205.636-.098.242-.185.498-.338.704a6.53 6.53 0 0 1-.826.925c-.197.179-.461.294-.71.408a6.82 6.82 0 0 1-.819.304c-.12.037-.254.03-.381.034-.218.006-.437.003-.655.003a2.223 2.223 0 0 1-.896-.207c-.219-.095-.46-.153-.66-.279a3.555 3.555 0 0 1-.73-.58 4.768 4.768 0 0 1-.65-.891c-.135-.238-.153-.539-.276-.786C.808 9.012.89 8.68.865 8.35c-.024-.306.083-.581.208-.854.094-.203.155-.42.25-.624.107-.228.23-.448.356-.667Z" clip-rule="evenodd"/><path fill="#DE411B" d="M4.497 13.892h2.62c.25 0 .414.13.517.34a.28.28 0 0 1 .01.17c-.03.146-.068.293-.11.438-.062.21-.135.417-.196.627a8.816 8.816 0 0 0-.117.458c-.085.37-.16.74-.252 1.11-.09.366-.2.727-.293 1.094-.057.224-.092.453-.147.677-.056.22-.125.44-.19.657-.006.025-.019.048-.025.072-.044.227-.076.457-.13.68-.054.215-.134.424-.193.638-.053.193-.133.39-.134.584-.003.318-.297.58-.615.562a20.542 20.542 0 0 0-1.58-.003c-.238.006-.473-.261-.511-.478-.047-.26-.136-.515-.206-.773-.007-.024-.009-.05-.016-.074-.074-.28-.154-.56-.222-.84-.05-.207-.077-.418-.127-.625-.056-.243-.127-.482-.192-.723-.044-.164-.093-.328-.13-.493-.088-.376-.16-.755-.254-1.13-.091-.364-.207-.725-.302-1.09-.057-.219-.085-.445-.14-.663a8.764 8.764 0 0 0-.196-.665c-.04-.12.03-.372.156-.428.13-.057.274-.113.412-.115.854-.01 1.708-.006 2.562-.005l.001-.002Zm2.197.887h-4.39c.054.159.11.285.14.415.053.231.09.466.135.7.005.024.018.047.026.071.063.205.135.408.186.616.055.224.086.456.135.682.037.171.084.34.132.509.061.217.133.432.188.651.09.37.166.741.255 1.11.1.422.2.845.316 1.262.037.133.042.321.253.323.288.005.578.004.866 0 .05 0 .126-.027.142-.062.052-.113.087-.236.118-.357.053-.207.097-.415.15-.622.062-.244.132-.486.193-.73.049-.197.083-.397.134-.593.098-.372.208-.74.3-1.113.054-.214.083-.435.13-.65.034-.165.076-.329.123-.49.063-.212.147-.42.2-.634.056-.23.088-.466.13-.7.005-.024.023-.044.03-.067l.108-.32Z"/></svg>