<svg xmlns="http://www.w3.org/2000/svg" width="22" height="22" fill="none"><path fill="#DE411B" fill-rule="evenodd" d="M11.633.043c.3.004.564.13.841.219.741.238 1.294.725 1.773 1.305.179.217.31.477.434.732.126.259.268.527.308.805.07.488.256.98.063 1.481a.298.298 0 0 0-.015.117c.004.294-.114.553-.209.823a4.92 4.92 0 0 1-.247.557c-.188.375-.462.674-.746.969-.095.099-.212.177-.312.27-.097.093-.127.186-.052.326.26.495.5 1.001.754 1.5.177.351.37.695.547 1.047.166.332.315.67.479 1.004.244.498.497.991.745 1.486.143.285.28.573.42.859.045.09.078.19.138.27.083.109.167.256.339.112a.096.096 0 0 1 .054-.018c.373-.04.75-.131 1.12-.107.445.03.898.09 1.312.292.252.124.517.222.754.369a3.807 3.807 0 0 1 1.352 1.444c.152.279.263.566.36.87.062.19.074.372.106.559 0 0 .049.354.049.583 0 .228-.05.582-.05.582-.014.429-.152.818-.356 1.188-.139.252-.267.516-.442.74-.397.509-.876.92-1.48 1.181-.36.157-.712.316-1.112.339 0 0-.376.053-.619.053-.236 0-.602-.048-.602-.048-.334 0-.63-.13-.938-.233-.368-.122-.69-.324-.988-.554a3.756 3.756 0 0 1-1.09-1.283c-.202-.397-.383-.797-.425-1.245-.025-.26-.04-.279-.312-.279H9.98c-.542 0-1.085.004-1.626-.002-.156-.003-.23.055-.233.213-.002.11 0 .227-.035.33-.101.296-.199.597-.339.877-.134.269-.284.544-.487.762-.402.434-.841.83-1.403 1.069l-.026.01c-.36.153-.712.304-1.108.33 0 0-.369.052-.606.053-.235 0-.598-.048-.598-.048-.2-.034-.395-.049-.598-.112a4.654 4.654 0 0 1-1.055-.482c-.4-.25-.741-.562-1.022-.934-.237-.314-.447-.643-.57-1.031-.09-.291-.22-.564-.222-.878 0 0-.054-.369-.053-.607 0-.23.053-.59.053-.59.002-.311.132-.585.219-.875.126-.412.353-.753.604-1.084.41-.537.933-.945 1.552-1.206.317-.133.667-.187 1.005-.266.194-.044.396-.109.59-.093.39.034.777.105 1.162.18.173.032.222-.092.274-.188.2-.374.386-.757.574-1.137.201-.403.398-.81.599-1.213.217-.436.442-.867.659-1.302.248-.502.488-1.007.735-1.508.16-.324.308-.656.495-.963.11-.18.043-.26-.085-.366-.382-.32-.73-.68-.974-1.114-.173-.306-.274-.655-.388-.992-.15-.445-.253-.909-.18-1.373.064-.408.125-.817.282-1.214.157-.394.351-.756.615-1.078A4.03 4.03 0 0 1 8.987.51c.277-.15.565-.253.857-.36.19-.07.373-.077.56-.106 0 0 .373-.044.614-.044.24 0 .615.043.615.043Zm-.17 17.429H8.425c-.265 0-.28-.021-.313-.286-.056-.437-.223-.836-.416-1.23-.24-.49-.619-.857-.991-1.232a1.683 1.683 0 0 0-.377-.258c-.167-.093-.208-.175-.1-.368.23-.413.414-.852.626-1.277.133-.265.285-.52.419-.785.136-.27.259-.546.39-.817.16-.328.325-.654.487-.982.223-.447.443-.894.665-1.342.155-.31.302-.625.477-.924.031-.054.182-.071.267-.054.244.05.48.137.726.187.228.048.46.093.691.093.507.002 1-.104 1.474-.288.13-.05.222-.039.293.12.161.356.356.695.53 1.044.21.417.41.838.617 1.255.175.348.36.693.532 1.043.137.278.258.563.396.84.169.34.352.672.525 1.011.167.327.335.653.485.987.022.048-.03.173-.082.206-.377.232-.706.519-.978.863-.195.247-.382.51-.52.792-.186.379-.348.774-.364 1.21-.005.165-.125.192-.263.192h-2.156Zm2.8-13.367c-.011 1.663-1.478 3.313-3.276 3.213-1.77.084-3.258-1.536-3.248-3.263.01-1.69 1.508-3.248 3.279-3.241 1.727.007 3.257 1.551 3.245 3.29Zm-7.872 11.5c.635.632.968 1.397.937 2.359h.001c.095 1.696-1.515 3.217-3.245 3.214-1.73-.002-3.302-1.54-3.251-3.27.022-.794.246-1.492.758-2.085.66-.768 1.489-1.17 2.525-1.159.896.01 1.649.32 2.275.94Zm9.22-.003c.634-.632 1.4-.957 2.257-.936.926-.011 1.68.29 2.309.906.655.644.969 1.414.992 2.345.044 1.725-1.522 3.305-3.262 3.252-.793-.024-1.487-.246-2.081-.755-.77-.66-1.166-1.493-1.158-2.53.007-.898.317-1.654.944-2.282Z" clip-rule="evenodd"/></svg>