<svg xmlns="http://www.w3.org/2000/svg" width="24" height="24" fill="none"><path fill="#DE411B" fill-rule="evenodd" d="M3.35 8.867C4.263 8.436 5.73 8.18 8 8.18h3c2.27 0 3.736.255 4.65.686.466.22.81.494 1.036.824.229.334.314.69.314 1.032v8.17c0 .342-.085.7-.314 1.033-.226.33-.57.605-1.035.824-.915.431-2.38.686-4.651.686H8c-2.27 0-3.736-.255-4.65-.686-.466-.22-.81-.494-1.036-.824A1.794 1.794 0 0 1 2 18.894v-8.17c0-.342.085-.7.314-1.033.226-.33.57-.605 1.035-.824Zm-.211 1.39a.795.795 0 0 0-.139.466v8.17c0 .17.04.323.139.468.102.149.29.32.637.485.71.334 1.995.59 4.224.59h3c2.23 0 3.514-.256 4.224-.59.348-.164.535-.336.637-.485a.795.795 0 0 0 .139-.467v-8.17c0-.17-.04-.323-.139-.468-.102-.149-.29-.32-.637-.485-.71-.334-1.995-.59-4.224-.59H8c-2.23 0-3.514.256-4.224.59-.348.164-.535.336-.637.485ZM12 4.074c-1.567 0-2.929.923-3.585 2.272a.5.5 0 0 1-.9-.437C8.33 4.236 10.027 3.074 12 3.074c1.973 0 3.666 1.162 4.48 2.835a.5.5 0 0 1-.9.437c-.656-1.35-2.013-2.272-3.58-2.272Z" clip-rule="evenodd"/><path fill="#DE411B" fill-rule="evenodd" d="M17.85.153a.5.5 0 0 1 .007.707l-3.48 3.554a.5.5 0 1 1-.714-.7l3.48-3.553a.5.5 0 0 1 .707-.008ZM6.15.153a.5.5 0 0 1 .708.008l3.474 3.554a.5.5 0 1 1-.715.7L6.143.86A.5.5 0 0 1 6.15.153ZM0 9.191c0-1.676 1.333-3.053 3-3.053h18c1.667 0 3 1.377 3 3.053v11.234c0 1.677-1.333 3.054-3 3.054H3c-1.667 0-3-1.377-3-3.053V9.191Zm3-2.053c-1.095 0-2 .91-2 2.053v11.234c0 1.145.905 2.054 2 2.054h18c1.095 0 2-.91 2-2.053V9.191c0-1.144-.905-2.054-2-2.054H3Z" clip-rule="evenodd"/><path fill="#DE411B" fill-rule="evenodd" d="M18 11.234c0-1.112.886-2.032 2-2.032 1.114 0 2 .92 2 2.032s-.886 2.032-2 2.032c-1.114 0-2-.92-2-2.032Zm2-1.032c-.542 0-1 .452-1 1.032 0 .58.458 1.032 1 1.032s1-.452 1-1.032c0-.58-.458-1.032-1-1.032ZM18 16.34c0-1.112.886-2.031 2-2.031 1.114 0 2 .92 2 2.031 0 1.113-.886 2.032-2 2.032-1.114 0-2-.92-2-2.032Zm2-1.031c-.542 0-1 .452-1 1.031 0 .58.458 1.032 1 1.032s1-.452 1-1.032c0-.58-.458-1.031-1-1.031Z" clip-rule="evenodd"/></svg>