<svg xmlns="http://www.w3.org/2000/svg" width="24" height="24" fill="none"><path fill="#DE411B" fill-rule="evenodd" d="M11.5 16a.5.5 0 0 1 .5.5v7a.5.5 0 0 1-1 0v-7a.5.5 0 0 1 .5-.5ZM11.5 0a.5.5 0 0 1 .5.5v2a.5.5 0 0 1-1 0v-2a.5.5 0 0 1 .5-.5ZM11.5 8a.5.5 0 0 1 .5.5v2a.5.5 0 0 1-1 0v-2a.5.5 0 0 1 .5-.5Z" clip-rule="evenodd"/><path fill="#DE411B" fill-rule="evenodd" d="M3 2.5a.5.5 0 0 1 .5-.5h17a.5.5 0 0 1 .354.146l3 3a.5.5 0 0 1 0 .708l-3 3A.5.5 0 0 1 20.5 9h-17a.5.5 0 0 1-.5-.5v-6ZM4 3v5h16.293l2.5-2.5-2.5-2.5H4ZM3.146 10.146A.5.5 0 0 1 3.5 10h17a.5.5 0 0 1 .5.5v6a.5.5 0 0 1-.5.5h-17a.5.5 0 0 1-.354-.146l-3-3a.5.5 0 0 1 0-.708l3-3Zm.561.854-2.5 2.5 2.5 2.5H20v-5H3.707Z" clip-rule="evenodd"/></svg>