<svg xmlns="http://www.w3.org/2000/svg" width="24" height="24" fill="none"><path fill="#DE411B" d="M12.73 23.83c-1.25 0-2.62-.47-5.09-1.34-.76-.27-1.63-.57-2.64-.91v.8c0 .28-.22.5-.5.5h-4c-.28 0-.5-.22-.5-.5v-8c0-.28.22-.5.5-.5h4c.28 0 .5.22.5.5v.5h2.5c2.27 0 3.96 1.3 4.7 2H15c.98 0 1.55.59 1.67 1.24l3.67-1.22c1.33-.38 2.34-.05 3.51 1.12.11.11.17.28.14.43a.54.54 0 0 1-.27.37c-2.23 1.11-3.91 2.02-5.26 2.75-2.89 1.55-4.22 2.26-5.74 2.26h.01ZM5 20.52c1.15.39 2.41.93 3.25 1.23 1.64.578 2.857 1.166 4.75 1.025 2.105-.156 3.291-1.16 4.99-2.075 1.22-.66 2.71-1.46 4.63-2.43-.75-.58-1.32-.59-1.98-.4l-4.25 1.41c-.28.36-.75.61-1.39.61H9.5c-.28 0-.5-.22-.5-.5s.22-.5.5-.5H15c.32 0 .51-.11.61-.24.01-.03.03-.05.04-.08.03-.06.04-.12.04-.18 0-.23-.18-.5-.7-.5h-3a.47.47 0 0 1-.35-.15c-.56-.56-2.08-1.85-4.15-1.85h-2.5v4.64l.01-.01Zm-4 1.36h3v-7H1v7Zm17.09-6c-.17 0-.34-.09-.43-.24a.513.513 0 0 1 .17-.69A7.555 7.555 0 0 0 21.5 8.5c0-1.53-.46-2.96-1.25-4.15-.25.61-.73 1.39-1.64 1.84-.11.05-.23.07-.35.04-.62-.16-1.23.04-1.6.22.14.23.28.56.41 1.04.1 0 .26-.04.4-.1.2-.09.43-.06.58.09.95.95-.26 2.2-.9 2.88-.07.08-.16.17-.24.25.17.15.4.37.41.72 0 .24-.1.48-.31.69-.34.34-.68.55-.92.67-.14 1.2-1.08 1.91-2.57 1.91-.81 0-1.54-1.83-1.54-2.24 0-.29.13-.54.23-.75.05-.1.12-.24.12-.3-.03-.09-.29-.43-.55-.69a.51.51 0 0 1-.15-.35c0-.24-.04-.42-.11-.49-.13-.12-.55-.1-.92-.08-.18.01-.37.02-.56.02-1.22 0-1.54-1.24-1.54-1.89 0-.12.02-2.85 2.14-3.27.95-.19 1.61-.13 2 .19.13.11.22.24.27.36.32.19.94.05 1.45-.07.16-.04.31-.07.45-.1.04-.41.05-.81.02-1.06-.41.13-.81.1-1.14-.08-.39-.22-.63-.62-.68-1.14-.07-.75.57-1.29 1.27-1.65h-.29a7.503 7.503 0 0 0-6.7 10.87c.12.25.03.55-.22.67s-.55.02-.67-.22c-.59-1.17-.9-2.49-.9-3.82C5.5 3.81 9.31 0 14 0c4.69 0 8.5 3.81 8.5 8.5 0 2.98-1.59 5.78-4.15 7.3-.08.05-.17.07-.26.07v.01Zm-5.47-5.82c.31.33.7.84.7 1.25 0 .29-.13.55-.23.75-.05.1-.12.24-.12.3.03.22.43 1.01.65 1.24 1.48-.04 1.48-.94 1.48-1.24 0-.22.14-.41.34-.47 0 0 .39-.14.8-.52 0 0-.02-.02-.03-.02-.17-.15-.42-.36-.42-.72 0-.31.22-.54.62-.95.27-.28.8-.83.93-1.2-.33.06-.75.04-1.06-.28a.478.478 0 0 1-.13-.23c-.11-.42-.28-.89-.39-1.05-.14-.05-.27-.15-.32-.27-.08-.17-.03-.46.1-.61.34-.41 1.56-1.02 2.76-.81.88-.53 1.14-1.56 1.19-1.82a7.606 7.606 0 0 0-3.25-2.06c-.04.02-.08.04-.13.05-1 .24-2.13.81-2.09 1.17 0 .11.04.29.17.36.11.06.3.04.5-.06.26-.13.53-.12.75.04.41.3.52 1.16.32 2.56-.04.25-.25.43-.5.43-.16 0-.41.06-.67.12-.75.17-1.78.41-2.46-.27a.474.474 0 0 1-.13-.24c-.07-.04-.36-.14-1.15.02-1.31.26-1.34 2.27-1.34 2.29 0 .03.02.89.54.89.17 0 .34 0 .5-.02.6-.03 1.22-.07 1.66.35.25.23.39.57.42 1.01l-.01.01Z"/></svg>