<svg xmlns="http://www.w3.org/2000/svg" width="24" height="21" fill="none"><path fill="#DE411B" d="M16.565 4.115H1.71v1h14.855v-1ZM17.855 8.645H.5v1h17.355v-1ZM9.065 13.17h-7.23v1h7.23v-1Z"/><path fill="#DE411B" d="M12.36 10.22h.98c.425-3.625-.705-7.12-3.41-10.055l-.735.68c2.555 2.77 3.605 6 3.17 9.375h-.005Z"/><path fill="#DE411B" d="M9.065 18.25v-.9C4.61 17.3 1 13.57 1 8.99s3.365-7.805 7.825-7.985c.12 0 .235-.005.355-.005 4.505 0 8.175 3.655 8.175 8.145 0 .365-.03.725-.08 1.075h1.01c.04-.355.07-.71.07-1.075C18.355 4.1 14.24 0 9.18 0c-.135 0-.265 0-.395.01C3.775.21 0 4.07 0 8.99c0 4.92 4.06 9.315 9.07 9.36 0-.035-.005-.065-.005-.1Z"/><path fill="#DE411B" d="M9.065 17.35C4.81 11.545 4.84 5.54 9.17.845l-.735-.68c-4.67 5.06-4.68 11.78-.03 17.98l.665-.495v-.3h-.005ZM14.815 18.705a.5.5 0 0 1-.5-.5v-5.03a.493.493 0 0 1 .72-.445l5.03 2.515a.5.5 0 0 1 0 .89l-5.03 2.515a.498.498 0 0 1-.225.055h.005Zm.5-4.72v3.41l3.415-1.705-3.415-1.705Z"/><path fill="#DE411B" d="M20.965 20.38H12.58a2.736 2.736 0 0 1-2.735-2.735v-3.91A2.736 2.736 0 0 1 12.58 11h8.385a2.736 2.736 0 0 1 2.735 2.735v3.91a2.736 2.736 0 0 1-2.735 2.735Zm-8.385-8.385a1.74 1.74 0 0 0-1.735 1.735v3.91c0 .955.78 1.735 1.735 1.735h8.385A1.74 1.74 0 0 0 22.7 17.64v-3.91a1.74 1.74 0 0 0-1.735-1.735H12.58Z"/></svg>